<?xml version="1.0" encoding="UTF-8"?> <svg xmlns="http://www.w3.org/2000/svg" width="125" height="56" viewBox="0 0 125 56" fill="none"><path d="M29.204 38.9627V47.9487H26.3594V25.7755H33.9158C35.8413 25.7755 37.4606 26.4174 38.8026 27.7011C40.1593 28.9848 40.8449 30.5457 40.8449 32.3837C40.8449 34.2218 40.1593 35.8264 38.8026 37.0955C37.4752 38.3501 35.8559 38.9919 33.9158 38.9919H29.204V38.9627ZM29.204 28.4888V36.2349H33.9741C35.112 36.2349 36.0456 35.8556 36.7895 35.0824C37.5481 34.3239 37.942 33.4049 37.942 32.3545C37.942 31.3042 37.5627 30.429 36.7895 29.6558C36.0456 28.8681 35.112 28.4742 33.9741 28.4742H29.204V28.4888Z" fill="#000117"></path><path d="M48.4587 32.282C50.5593 32.282 52.2223 32.851 53.4476 33.9742C54.6584 35.0975 55.2711 36.6437 55.2711 38.5985V47.9492H52.5432V45.8486H52.4265C51.2449 47.5845 49.684 48.4452 47.7147 48.4452C46.0371 48.4452 44.6367 47.9492 43.5135 46.9572C42.3902 45.9653 41.8213 44.7253 41.8213 43.2374C41.8213 41.6619 42.4194 40.422 43.601 39.4883C44.7826 38.5547 46.3726 38.0879 48.3566 38.0879C50.0487 38.0879 51.4491 38.3943 52.5432 39.0215V38.3651C52.5432 37.3731 52.1493 36.527 51.3616 35.8414C50.5739 35.1558 49.6549 34.8057 48.6045 34.8057C47.0145 34.8057 45.76 35.4767 44.8263 36.8188L42.3173 35.2433C43.7031 33.2594 45.7454 32.2675 48.4441 32.2675L48.4587 32.282ZM44.768 43.3103C44.768 44.0543 45.0889 44.667 45.7162 45.1629C46.3435 45.6589 47.0874 45.9069 47.9335 45.9069C49.1297 45.9069 50.1946 45.4693 51.1428 44.5794C52.0764 43.6896 52.5578 42.6539 52.5578 41.4577C51.668 40.7575 50.428 40.4074 48.8379 40.4074C47.6855 40.4074 46.7227 40.6845 45.935 41.2389C45.1619 41.7932 44.768 42.4934 44.768 43.3103Z" fill="#000117"></path><path d="M58.4961 32.7775H61.224V35.2574H61.3407C62.1868 33.3172 63.9373 32.3399 66.5777 32.3399L67.1612 32.3982V35.3741L65.892 35.2574C64.5646 35.2574 63.4851 35.6658 62.6244 36.4827C61.7637 37.2997 61.3407 38.3354 61.3407 39.5899V47.9486H58.4961V32.7775ZM76.2784 48.1966C75.0385 48.1966 74.0174 47.8174 73.2004 47.0442C72.3835 46.2857 71.9605 45.2208 71.9459 43.8495V35.3595H69.2764V32.7629H71.9459V28.124H74.7905V32.7629H78.5104V35.3595H74.7905V42.9159C74.7905 43.9225 74.9801 44.6081 75.374 44.9728C75.7679 45.3375 76.2055 45.5125 76.7015 45.5125C76.9349 45.5125 77.1537 45.4833 77.3725 45.4396C77.5913 45.3812 77.7956 45.3229 77.9706 45.2353L78.875 47.7736C78.1311 48.0362 77.2704 48.182 76.2784 48.182V48.1966Z" fill="#000117"></path><path d="M81.3848 32.7777H84.1127V34.8783H84.2294C84.667 34.1344 85.3234 33.5217 86.2279 33.0257C87.1323 32.5297 88.0659 32.2817 89.0287 32.2817C90.8813 32.2817 92.3109 32.8069 93.3175 33.8718C94.324 34.9367 94.82 36.4538 94.82 38.4086V47.9489H91.9754V38.5982C91.917 36.1183 90.6625 34.8783 88.2264 34.8783C87.0885 34.8783 86.1403 35.3451 85.3818 36.2496C84.6232 37.1686 84.2294 38.2627 84.2294 39.5464V47.9343H81.3848V32.7631V32.7777Z" fill="#000117"></path><path d="M104.988 48.4449C102.757 48.4449 100.919 47.6863 99.4743 46.1546C98.0302 44.6229 97.3008 42.6973 97.3008 40.3633C97.3008 38.0293 98.001 36.1329 99.4014 34.5866C100.802 33.0549 102.596 32.2817 104.784 32.2817C106.972 32.2817 108.825 33.0111 110.153 34.4699C111.48 35.9287 112.151 37.9709 112.151 40.5821L112.122 40.8885H100.204C100.247 42.3764 100.743 43.5726 101.692 44.477C102.64 45.3815 103.778 45.8337 105.105 45.8337C106.929 45.8337 108.344 44.9292 109.379 43.1058L111.918 44.3457C111.232 45.6294 110.298 46.6214 109.088 47.3508C107.877 48.0802 106.506 48.4303 104.988 48.4303V48.4449ZM100.437 38.5398H109.146C109.058 37.4895 108.635 36.6143 107.862 35.9287C107.089 35.243 106.053 34.8929 104.755 34.8929C103.676 34.8929 102.757 35.2284 101.983 35.8849C101.21 36.5413 100.7 37.4312 100.452 38.5544L100.437 38.5398Z" fill="#000117"></path><path d="M117.618 47.9482H114.773V32.777H117.501V35.2569H117.618C117.91 34.4546 118.508 33.769 119.398 33.2001C120.302 32.6312 121.177 32.354 122.053 32.354C122.928 32.354 123.584 32.4707 124.153 32.7187L123.293 35.4758C122.943 35.3299 122.388 35.2569 121.615 35.2569C120.536 35.2569 119.602 35.6946 118.814 36.5552C118.012 37.4159 117.618 38.4371 117.618 39.5895V47.9482Z" fill="#000117"></path><path d="M32.809 12.8088V14.749H37.4332C37.2874 15.9743 36.7768 16.9225 35.9161 17.5936C35.07 18.2646 34.0343 18.6001 32.809 18.6001C31.3794 18.6001 30.1832 18.1041 29.2058 17.0976C28.2284 16.1056 27.7325 14.8949 27.7325 13.4507C27.7325 12.0065 28.2284 10.7957 29.2058 9.80377C30.1832 8.79722 31.394 8.30124 32.809 8.30124C34.151 8.30124 35.3034 8.76805 36.2954 9.68707L37.6667 8.31583C36.2954 7.01753 34.6762 6.36108 32.809 6.36108C31.5398 6.36108 30.3436 6.68201 29.2204 7.32387C28.0972 7.95114 27.2219 8.8264 26.58 9.93506C25.9528 11.0145 25.6318 12.1816 25.6318 13.4361C25.6318 14.6906 25.9528 15.8722 26.58 16.9663C27.2073 18.0604 28.0972 18.9211 29.2204 19.5629C30.3436 20.2048 31.5398 20.5257 32.809 20.5257C34.7199 20.5257 36.31 19.9276 37.5645 18.7314C38.8045 17.5498 39.4318 15.9743 39.4318 14.0196C39.4318 13.5528 39.4026 13.1589 39.3296 12.8088H32.8235H32.809Z" fill="#000117"></path><path d="M44.6821 11.408C43.3838 11.408 42.2897 11.8456 41.4145 12.7208C40.5392 13.5815 40.1016 14.661 40.1016 15.9739C40.1016 17.2868 40.5392 18.3371 41.429 19.2269C42.3043 20.1022 43.3838 20.5398 44.6821 20.5398C45.9804 20.5398 47.0599 20.1022 47.9351 19.2269C48.825 18.3371 49.2626 17.2576 49.2626 15.9739C49.2626 14.6902 48.825 13.5961 47.9351 12.7208C47.0599 11.8456 45.9804 11.408 44.6821 11.408ZM46.491 17.9432C45.995 18.4684 45.3969 18.731 44.6821 18.731C43.9673 18.731 43.34 18.4684 42.844 17.9432C42.3481 17.4181 42.1001 16.7616 42.1001 15.9739C42.1001 15.1862 42.3481 14.5151 42.844 14.0046C43.34 13.4794 43.9527 13.2168 44.6821 13.2168C45.4115 13.2168 46.0241 13.4794 46.5201 14.0046C47.0161 14.5151 47.2641 15.1716 47.2641 15.9739C47.2641 16.7762 47.0161 17.4035 46.5055 17.9432H46.491Z" fill="#000117"></path><path d="M72.1928 6.85693H70.1943V20.263H72.1928V6.85693Z" fill="#000117"></path><path d="M54.6723 11.408C53.374 11.408 52.2799 11.8456 51.4047 12.7208C50.5294 13.5815 50.0918 14.661 50.0918 15.9739C50.0918 17.2868 50.5294 18.3371 51.4193 19.2269C52.2945 20.1022 53.374 20.5398 54.6723 20.5398C55.9706 20.5398 57.0501 20.1022 57.9254 19.2269C58.8152 18.3371 59.2528 17.2576 59.2528 15.9739C59.2528 14.6902 58.8152 13.5961 57.9254 12.7208C57.0501 11.8456 55.9706 11.408 54.6723 11.408ZM56.4812 17.9432C55.9852 18.4684 55.3871 18.731 54.6723 18.731C53.9575 18.731 53.3303 18.4684 52.8343 17.9432C52.3383 17.4181 52.0903 16.7616 52.0903 15.9739C52.0903 15.1862 52.3383 14.5151 52.8343 14.0046C53.3303 13.4794 53.9429 13.2168 54.6723 13.2168C55.4017 13.2168 56.0144 13.4794 56.5104 14.0046C57.0063 14.5151 57.2543 15.1716 57.2543 15.9739C57.2543 16.7762 57.0063 17.4035 56.4958 17.9432H56.4812Z" fill="#000117"></path><path d="M77.694 18.7297C76.6874 18.7297 75.9581 18.2629 75.4767 17.3439L81.5743 14.8202L81.3701 14.295C81.2096 13.872 81.0054 13.4781 80.7428 13.1134C80.4802 12.7633 80.1885 12.4424 79.853 12.1944C79.5174 11.9318 79.1527 11.7422 78.7443 11.5963C78.3358 11.465 77.9128 11.3921 77.4606 11.3921C76.2352 11.3921 75.2141 11.8297 74.3826 12.6904C73.5657 13.5656 73.1572 14.6597 73.1572 15.958C73.1572 17.2563 73.5949 18.3358 74.4555 19.2111C75.3162 20.0863 76.3957 20.524 77.6794 20.524C79.2986 20.524 80.5532 19.8529 81.4722 18.4963L79.9113 17.4606C79.3424 18.3066 78.5984 18.7151 77.6648 18.7151L77.694 18.7297ZM75.8414 13.9303C76.3519 13.4198 76.9063 13.1718 77.5335 13.1718C77.9274 13.1718 78.2775 13.2593 78.5838 13.4344C78.8902 13.6094 79.109 13.8428 79.2257 14.1346L75.1557 15.8267C75.1266 15.0536 75.36 14.4263 75.8414 13.9303Z" fill="#000117"></path><path d="M66.9138 12.4291H66.8409C66.272 11.7435 65.4696 11.408 64.4339 11.408C63.2523 11.408 62.2312 11.8602 61.3559 12.75C60.4953 13.6545 60.0576 14.7194 60.0576 15.9739C60.0576 17.2284 60.4953 18.2933 61.3559 19.1832C62.2458 20.073 63.2669 20.5107 64.4339 20.5107C65.455 20.5107 66.2574 20.1606 66.8409 19.4749H66.9138V19.9417C66.9138 21.8527 66.0969 22.8155 64.4777 22.8155C63.9525 22.8155 63.5003 22.6696 63.0919 22.3633C62.6834 22.0569 62.3771 21.6777 62.1728 21.1817L60.4223 21.9111C60.5974 22.3195 60.8162 22.6842 61.0788 23.0051C61.3413 23.3407 61.6477 23.6178 61.9978 23.8512C62.3479 24.0846 62.7272 24.2743 63.1502 24.4056C63.5587 24.5368 63.9963 24.6098 64.4631 24.6098C65.8197 24.6098 66.8846 24.2013 67.6432 23.3698C68.4018 22.5529 68.7956 21.3713 68.7956 19.8542V11.6705H66.8992V12.4145L66.9138 12.4291ZM66.3449 17.9578C65.8781 18.483 65.2946 18.731 64.6236 18.731C63.9088 18.731 63.3107 18.4684 62.8147 17.9432C62.3333 17.4181 62.0853 16.7616 62.0853 15.9885C62.0853 15.2153 62.3333 14.5443 62.8293 14.0191C63.3398 13.4794 63.9379 13.2022 64.6236 13.2022C65.3092 13.2022 65.8927 13.4648 66.3449 13.99C66.8117 14.5297 67.0597 15.2007 67.0597 15.9739C67.0597 16.747 66.8263 17.4035 66.3449 17.9432V17.9578Z" fill="#000117"></path><path d="M14.5293 0H0V55.2289H14.5293V0Z" fill="#000117"></path></svg> 