<?xml version="1.0" encoding="UTF-8"?> <svg xmlns="http://www.w3.org/2000/svg" width="125" height="50" viewBox="0 0 125 50" fill="none"><path d="M45.9707 0.812256H50.6798L58.689 15.298L66.695 0.812256H71.3057V24.6304H67.4597V6.36856L60.4374 19.0011H56.8421L49.8103 6.36856V24.6304H45.9707V0.812256Z" fill="#000117"></path><path d="M83.6912 25.0327C82.0506 25.0676 80.4291 24.6614 78.998 23.8554C77.662 23.078 76.5705 21.9451 75.8438 20.5838C75.0695 19.1051 74.6824 17.455 74.7141 15.7859C74.6792 14.1041 75.0568 12.4413 75.8152 10.9404C76.5133 9.5791 77.5764 8.43674 78.8869 7.64661C80.2514 6.83426 81.8158 6.42174 83.4024 6.45347C86.5058 6.32972 89.3649 8.14162 90.5739 11.0039C91.2656 12.6032 91.602 14.3326 91.5607 16.0747V17.125H78.522C78.6902 18.4387 79.3153 19.6509 80.2831 20.5521C81.2636 21.4025 82.5298 21.8499 83.8276 21.8023C84.8367 21.8245 85.8426 21.65 86.7851 21.2883C87.6513 20.9233 88.4415 20.3998 89.1142 19.7397L91.1514 22.2434C89.1269 24.1061 86.4487 25.1056 83.6912 25.0327ZM86.4995 10.9277C85.6586 10.0868 84.5035 9.63939 83.3136 9.69333C82.1268 9.6616 80.9749 10.1154 80.1276 10.9499C79.2328 11.8733 78.6616 13.0601 78.503 14.3357H87.8766C87.8417 13.0696 87.3562 11.8575 86.5026 10.9182V10.9277H86.4995Z" fill="#000117"></path><path d="M96.2278 10.0278H92.6865V6.88315H96.2278V1.6759H99.931V6.88315H105.3V10.031H99.931V17.9989C99.931 19.3222 100.156 20.2678 100.61 20.839C101.061 21.4101 101.838 21.6926 102.939 21.6862C103.355 21.6894 103.767 21.6703 104.183 21.6259C104.526 21.591 104.897 21.5339 105.303 21.4673V24.577C104.84 24.7135 104.367 24.815 103.888 24.888C103.339 24.9673 102.784 25.0086 102.228 25.0054C98.227 25.0054 96.2278 22.819 96.231 18.4432V10.0278H96.2278Z" fill="#000117"></path><path d="M124.623 24.6314H120.984V22.15C120.355 23.0639 119.508 23.8 118.518 24.2982C117.461 24.8155 116.297 25.0757 115.119 25.0535C113.647 25.082 112.197 24.6631 110.966 23.8572C109.734 23.0353 108.751 21.8961 108.116 20.557C107.402 19.0593 107.047 17.4155 107.078 15.7559C107.044 14.09 107.405 12.4431 108.135 10.9453C108.789 9.60625 109.795 8.47023 111.048 7.66423C112.327 6.85823 113.815 6.44255 115.326 6.47111C116.452 6.45207 117.569 6.69323 118.588 7.17556C119.537 7.62933 120.362 8.3084 120.987 9.15564V6.88044H124.626V24.6314H124.623ZM120.914 13.1031C120.549 12.1321 119.892 11.2976 119.035 10.7137C118.159 10.1235 117.125 9.81885 116.068 9.84106C114.631 9.7776 113.238 10.3615 112.276 11.434C111.34 12.5002 110.867 13.9377 110.864 15.7528C110.861 17.5678 111.315 19.0117 112.229 20.0842C113.146 21.1567 114.507 21.7501 115.919 21.6867C117.007 21.6962 118.074 21.3789 118.978 20.776C119.86 20.208 120.539 19.3734 120.917 18.396V13.1031H120.914Z" fill="#000117"></path><path d="M27.3971 0C24.3064 0 21.8916 2.32597 19.7021 5.28341C18.95 4.32827 18.2297 3.5191 17.5253 2.84638C17.1794 2.51636 16.8367 2.21491 16.494 1.94836C16.4813 1.93884 16.4686 1.92932 16.4559 1.9198C16.2909 1.7897 16.1259 1.66594 15.9609 1.55171C15.7959 1.43747 15.6308 1.32958 15.4658 1.22804C15.4436 1.21535 15.4246 1.20265 15.4024 1.18996C15.2564 1.10111 15.1104 1.0186 14.9645 0.942446C14.9454 0.932926 14.9232 0.920236 14.9042 0.910716C14.7455 0.828213 14.5869 0.752055 14.4282 0.682244C14.4028 0.672725 14.3774 0.66003 14.3552 0.65051C14.2188 0.590219 14.0823 0.536278 13.9427 0.485507C13.911 0.472814 13.8792 0.460121 13.8475 0.450601C13.692 0.396656 13.5333 0.345884 13.3747 0.301459C13.3493 0.295113 13.3271 0.288767 13.3017 0.282421C13.1653 0.244342 13.0288 0.212606 12.8892 0.184047C12.8511 0.174527 12.8099 0.16818 12.7718 0.158661C12.6131 0.126929 12.4545 0.101543 12.2926 0.0793304C12.2736 0.0793304 12.2577 0.0761607 12.2387 0.0729875C12.0927 0.0539482 11.9467 0.0412538 11.8008 0.0317341C11.7595 0.0317341 11.7151 0.0253881 11.6707 0.0222148C11.5057 0.0126952 11.3407 0.00634779 11.1757 0.00634779C5.045 0.00634779 0.348633 7.98382 0.348633 16.4436C0.348633 21.727 2.90308 25.0621 7.17423 25.0621C10.2586 25.0621 12.4767 23.6056 16.4178 16.7197L19.188 11.8171C19.5847 12.4581 19.9972 13.1466 20.4383 13.8828L22.2851 16.9926C25.8835 23.0185 27.8922 25.0621 31.5223 25.0621C35.6951 25.0621 38.0147 21.6794 38.0147 16.2881C38.0306 7.43485 33.2295 0.00634779 27.394 0.00634779L27.3971 0ZM13.4223 14.838C10.2364 19.8421 9.12258 20.9654 7.34558 20.9654C5.56858 20.9654 4.42305 19.3598 4.42305 16.4912C4.42305 10.3606 7.48203 4.09028 11.1249 4.09028C11.1249 4.09028 11.1249 4.09028 11.1281 4.09028V4.09662C13.0986 4.09662 14.7487 5.23899 17.2714 8.85011C14.8756 12.5279 13.4223 14.838 13.4223 14.838ZM31.5985 20.9718C29.8056 20.9908 28.9361 19.766 25.4805 14.2033L23.272 10.5256C22.6722 9.54821 22.101 8.65336 21.5457 7.83467C23.5353 4.76617 25.1822 3.23668 27.1306 3.23668C31.186 3.23668 34.4131 9.21502 34.4131 16.5515C34.4131 19.3503 33.5024 20.975 31.5953 20.975L31.5985 20.9718Z" fill="#000117"></path><path d="M0 48.9436V37.6724H4.2299C5.08984 37.6724 5.7816 37.7866 6.30201 38.0151C6.82242 38.2435 7.22858 38.5926 7.52369 39.0686C7.8188 39.5414 7.96477 40.0396 7.96477 40.5568C7.96477 41.0391 7.83467 41.4929 7.57129 41.9181C7.30792 42.3433 6.91444 42.686 6.38769 42.9494C7.06993 43.1493 7.59351 43.4889 7.95843 43.9712C8.32335 44.4535 8.50739 45.0215 8.50739 45.6784C8.50739 46.2051 8.39633 46.697 8.1742 47.1508C7.95208 47.6045 7.67601 47.9536 7.34917 48.2011C7.02233 48.4486 6.60981 48.6327 6.11479 48.7596C5.61977 48.8865 5.01368 48.9468 4.29653 48.9468H0V48.9436ZM1.49141 42.41H3.92844C4.58847 42.41 5.06445 42.3656 5.35004 42.2799C5.72766 42.1656 6.01642 41.9784 6.20681 41.7182C6.40038 41.458 6.49557 41.128 6.49557 40.7345C6.49557 40.341 6.40672 40.0301 6.22585 39.7476C6.04498 39.4621 5.79112 39.2685 5.45793 39.1638C5.12474 39.0591 4.55357 39.0051 3.7444 39.0051H1.49141V42.41ZM1.49141 47.6141H4.29653C4.77886 47.6141 5.11523 47.595 5.31197 47.5601C5.65467 47.4998 5.94343 47.3951 6.17191 47.2523C6.40355 47.1095 6.59077 46.9001 6.73991 46.6272C6.88905 46.3543 6.96204 46.037 6.96204 45.6784C6.96204 45.2595 6.85415 44.8914 6.63837 44.5836C6.42259 44.2727 6.12431 44.0569 5.74352 43.9299C5.36273 43.803 4.81059 43.7427 4.09345 43.7427H1.48824V47.6141H1.49141Z" fill="#000117"></path><path d="M16.4619 48.9439V47.7444C15.8272 48.6678 14.9641 49.1279 13.8693 49.1279C13.387 49.1279 12.9364 49.0359 12.5207 48.8518C12.1019 48.6678 11.7941 48.4361 11.591 48.1569C11.3879 47.8777 11.2451 47.535 11.1658 47.1288C11.1086 46.8559 11.0801 46.4275 11.0801 45.8373V40.7792H12.4636V45.3073C12.4636 46.0308 12.4922 46.5163 12.5493 46.767C12.635 47.1319 12.8222 47.4175 13.1014 47.6238C13.3838 47.8301 13.7329 47.9348 14.1486 47.9348C14.5643 47.9348 14.9546 47.8269 15.3163 47.6143C15.6812 47.4017 15.9383 47.1129 16.0874 46.7448C16.2397 46.3767 16.3127 45.8468 16.3127 45.1487V40.7728H17.6962V48.9375H16.4619V48.9439Z" fill="#000117"></path><path d="M19.3145 46.5069L20.6821 46.2911C20.7583 46.8401 20.974 47.259 21.3231 47.5509C21.6753 47.8428 22.164 47.9888 22.7955 47.9888C23.4269 47.9888 23.9029 47.8587 24.2107 47.6017C24.5185 47.3415 24.6708 47.04 24.6708 46.691C24.6708 46.38 24.5344 46.1325 24.2647 45.9516C24.0743 45.8278 23.6046 45.6724 22.8494 45.482C21.834 45.2249 21.1295 45.0028 20.7392 44.8156C20.3457 44.6284 20.0506 44.3682 19.8476 44.0382C19.6445 43.7081 19.5429 43.3432 19.5429 42.9434C19.5429 42.5785 19.6254 42.2421 19.7936 41.9311C19.9618 41.6202 20.1871 41.3631 20.4727 41.1569C20.6885 40.9982 20.9804 40.8649 21.3517 40.7539C21.7229 40.6428 22.1228 40.5889 22.548 40.5889C23.189 40.5889 23.7506 40.6809 24.2361 40.8649C24.7216 41.049 25.077 41.2997 25.3087 41.6138C25.5403 41.928 25.699 42.35 25.7846 42.8799L24.4328 43.064C24.3726 42.6451 24.1949 42.3151 23.8997 42.0803C23.6046 41.8455 23.1889 41.7281 22.6495 41.7281C22.0149 41.7281 21.5611 41.8328 21.2882 42.0422C21.0153 42.2516 20.882 42.4991 20.882 42.7816C20.882 42.9624 20.9391 43.1211 21.0502 43.2671C21.1644 43.4162 21.339 43.54 21.5801 43.6352C21.7197 43.6859 22.1259 43.8033 22.8018 43.9874C23.7823 44.2476 24.4646 44.4634 24.8517 44.6284C25.2388 44.7966 25.5435 45.0377 25.7624 45.355C25.9814 45.6724 26.0924 46.0658 26.0924 46.5386C26.0924 47.0115 25.9592 47.4335 25.6894 47.8428C25.4197 48.249 25.0326 48.5663 24.5249 48.7885C24.0172 49.0106 23.4428 49.1217 22.8018 49.1217C21.742 49.1217 20.9328 48.9027 20.3775 48.4616C19.8222 48.0269 19.4668 47.3732 19.3145 46.5069Z" fill="#000117"></path><path d="M27.749 39.2653V37.6724H29.1326V39.2653H27.749ZM27.749 48.9436V40.7789H29.1326V48.9436H27.749Z" fill="#000117"></path><path d="M31.2373 48.944V40.7793H32.4812V41.9407C33.0809 41.0426 33.9472 40.5952 35.0801 40.5952C35.5719 40.5952 36.0257 40.6841 36.4382 40.8618C36.8507 41.0395 37.1585 41.2711 37.3648 41.5567C37.571 41.8423 37.7138 42.185 37.7963 42.5785C37.8471 42.8355 37.8725 43.2829 37.8725 43.9239V48.944H36.489V43.9779C36.489 43.413 36.435 42.9942 36.3271 42.7118C36.2193 42.4325 36.0289 42.2104 35.7528 42.0422C35.4799 41.8772 35.1562 41.7915 34.7881 41.7915C34.1979 41.7915 33.6902 41.9787 33.2618 42.3532C32.8334 42.7276 32.6208 43.4384 32.6208 44.4824V48.9408H31.2373V48.944Z" fill="#000117"></path><path d="M45.5865 46.3165L47.0176 46.4942C46.7923 47.3288 46.3734 47.9793 45.7642 48.4394C45.1549 48.8995 44.3743 49.1312 43.4255 49.1312C42.2324 49.1312 41.2836 48.7631 40.5855 48.0269C39.8842 47.2907 39.5352 46.2594 39.5352 44.933C39.5352 43.6066 39.8874 42.4928 40.595 41.7344C41.3026 40.976 42.2197 40.5952 43.3462 40.5952C44.4727 40.5952 45.3294 40.9665 46.0212 41.709C46.713 42.4515 47.0589 43.4987 47.0589 44.8442C47.0589 44.9267 47.0557 45.0504 47.0525 45.2123H40.9631C41.0139 46.1103 41.2677 46.7957 41.7247 47.2717C42.1816 47.7476 42.7496 47.9856 43.4319 47.9856C43.9396 47.9856 44.3711 47.8524 44.7329 47.5858C45.0915 47.3256 45.3739 46.9004 45.5865 46.3165ZM41.0424 44.0794H45.6023C45.5421 43.394 45.3675 42.8768 45.0788 42.5341C44.6377 42.001 44.0665 41.7344 43.3652 41.7344C42.7306 41.7344 42.1943 41.947 41.7628 42.3722C41.328 42.7974 41.0869 43.3654 41.0424 44.0794Z" fill="#000117"></path><path d="M48.1982 46.5069L49.5659 46.2911C49.6421 46.8401 49.8578 47.259 50.2069 47.5509C50.5591 47.8428 51.0478 47.9888 51.6793 47.9888C52.3107 47.9888 52.7867 47.8587 53.0945 47.6017C53.4023 47.3415 53.5546 47.04 53.5546 46.691C53.5546 46.38 53.4182 46.1325 53.1485 45.9516C52.9581 45.8278 52.4884 45.6724 51.7332 45.482C50.7178 45.2249 50.0133 45.0028 49.623 44.8156C49.2295 44.6284 48.9344 44.3682 48.7313 44.0382C48.5283 43.7081 48.4267 43.3432 48.4267 42.9434C48.4267 42.5785 48.5092 42.2421 48.6774 41.9311C48.8456 41.6202 49.0709 41.3631 49.3565 41.1569C49.5722 40.9982 49.8642 40.8649 50.2355 40.7539C50.6067 40.6428 51.0065 40.5889 51.4318 40.5889C52.0727 40.5889 52.6344 40.6809 53.1199 40.8649C53.6054 41.049 53.9608 41.2997 54.1924 41.6138C54.4241 41.928 54.5827 42.35 54.6684 42.8799L53.3166 43.064C53.2564 42.6451 53.0787 42.3151 52.7835 42.0803C52.4884 41.8455 52.0727 41.7281 51.5333 41.7281C50.8987 41.7281 50.4449 41.8328 50.172 42.0422C49.8991 42.2516 49.7658 42.4991 49.7658 42.7816C49.7658 42.9624 49.8229 43.1211 49.934 43.2671C50.0482 43.4162 50.2227 43.54 50.4639 43.6352C50.6035 43.6859 51.0097 43.8033 51.6856 43.9874C52.6661 44.2476 53.3484 44.4634 53.7355 44.6284C54.1226 44.7966 54.4273 45.0377 54.6462 45.355C54.8652 45.6724 54.9762 46.0658 54.9762 46.5386C54.9762 47.0115 54.843 47.4335 54.5732 47.8428C54.3035 48.249 53.9164 48.5663 53.4087 48.7885C52.901 49.0106 52.3266 49.1217 51.6856 49.1217C50.6258 49.1217 49.8166 48.9027 49.2613 48.4616C48.7091 48.0269 48.3537 47.3732 48.1982 46.5069Z" fill="#000117"></path><path d="M56.0713 46.5069L57.4389 46.2911C57.5151 46.8401 57.7309 47.259 58.0799 47.5509C58.4322 47.8428 58.9208 47.9888 59.5523 47.9888C60.1838 47.9888 60.6598 47.8587 60.9676 47.6017C61.2754 47.3415 61.4277 47.04 61.4277 46.691C61.4277 46.38 61.2912 46.1325 61.0215 45.9516C60.8311 45.8278 60.3615 45.6724 59.6063 45.482C58.5908 45.2249 57.8864 45.0028 57.4961 44.8156C57.1026 44.6284 56.8075 44.3682 56.6044 44.0382C56.4013 43.7081 56.2998 43.3432 56.2998 42.9434C56.2998 42.5785 56.3823 42.2421 56.5504 41.9311C56.7186 41.6202 56.9439 41.3631 57.2295 41.1569C57.4453 40.9982 57.7372 40.8649 58.1085 40.7539C58.4798 40.6428 58.8796 40.5889 59.3048 40.5889C59.9458 40.5889 60.5074 40.6809 60.993 40.8649C61.4785 41.049 61.8339 41.2997 62.0655 41.6138C62.2971 41.928 62.4558 42.35 62.5415 42.8799L61.1897 43.064C61.1294 42.6451 60.9517 42.3151 60.6566 42.0803C60.3615 41.8455 59.9458 41.7281 59.4063 41.7281C58.7717 41.7281 58.3179 41.8328 58.045 42.0422C57.7721 42.2516 57.6389 42.4991 57.6389 42.7816C57.6389 42.9624 57.696 43.1211 57.807 43.2671C57.9213 43.4162 58.0958 43.54 58.337 43.6352C58.4766 43.6859 58.8828 43.8033 59.5587 43.9874C60.5392 44.2476 61.2214 44.4634 61.6086 44.6284C61.9957 44.7966 62.3003 45.0377 62.5193 45.355C62.7382 45.6724 62.8493 46.0658 62.8493 46.5386C62.8493 47.0115 62.716 47.4335 62.4463 47.8428C62.1766 48.249 61.7894 48.5663 61.2817 48.7885C60.774 49.0106 60.1996 49.1217 59.5587 49.1217C58.4988 49.1217 57.6896 48.9027 57.1343 48.4616C56.5822 48.0269 56.2268 47.3732 56.0713 46.5069Z" fill="#000117"></path><path d="M69.9355 48.9436V37.6724H74.1877C74.9365 37.6724 75.5077 37.7073 75.9012 37.7803C76.4565 37.8723 76.9198 38.0468 77.2942 38.307C77.6687 38.5672 77.9701 38.929 78.1986 39.3954C78.4271 39.8619 78.5413 40.3759 78.5413 40.9344C78.5413 41.8927 78.2367 42.7051 77.6274 43.3683C77.0182 44.0315 75.9139 44.3647 74.3209 44.3647H71.4301V48.9468H69.9355V48.9436ZM71.427 43.0319H74.34C75.3046 43.0319 75.9869 42.8542 76.393 42.4925C76.7992 42.1339 76.9991 41.6294 76.9991 40.9789C76.9991 40.5061 76.8785 40.103 76.6406 39.7667C76.4026 39.4303 76.0884 39.2082 75.6981 39.1003C75.4474 39.0337 74.9841 38.9988 74.3051 38.9988H71.4206V43.0319H71.427Z" fill="#000117"></path><path d="M85.7662 47.938C85.2553 48.3728 84.7603 48.6806 84.2875 48.8614C83.8147 49.0391 83.3038 49.1312 82.7612 49.1312C81.8632 49.1312 81.1746 48.9122 80.6922 48.4743C80.2099 48.0364 79.9688 47.4747 79.9688 46.7957C79.9688 46.3959 80.0608 46.0309 80.2417 45.7009C80.4225 45.3709 80.6605 45.1044 80.9556 44.9044C81.2507 44.7045 81.5807 44.5522 81.952 44.4507C82.2249 44.3777 82.6343 44.3079 83.1832 44.2412C84.3002 44.108 85.1221 43.9493 85.652 43.7653C85.6583 43.5749 85.6583 43.4543 85.6583 43.4035C85.6583 42.8387 85.5282 42.442 85.2648 42.2104C84.9126 41.8994 84.3859 41.7407 83.6878 41.7407C83.0373 41.7407 82.5549 41.855 82.2471 42.0835C81.9361 42.3119 81.7077 42.7149 81.5585 43.2956L80.2067 43.1116C80.3305 42.5341 80.5336 42.0644 80.8128 41.709C81.0952 41.3536 81.5014 41.0775 82.0345 40.8872C82.5676 40.6936 83.1864 40.5984 83.8877 40.5984C84.589 40.5984 85.1506 40.6809 85.5853 40.8459C86.0201 41.0109 86.3406 41.2172 86.5468 41.4647C86.7531 41.7122 86.8959 42.0263 86.9784 42.4071C87.0228 42.6419 87.0482 43.0672 87.0482 43.6828V45.5264C87.0482 46.8115 87.0768 47.6271 87.137 47.9666C87.1973 48.3061 87.3116 48.633 87.4861 48.9471H86.0423C85.8995 48.6584 85.8075 48.322 85.7662 47.938ZM85.652 44.8473C85.1506 45.0536 84.3954 45.2281 83.3927 45.3709C82.8246 45.4534 82.4216 45.5454 82.1868 45.647C81.952 45.7485 81.768 45.9008 81.641 46.0976C81.5141 46.2943 81.4475 46.5133 81.4475 46.7544C81.4475 47.1225 81.5871 47.4303 81.8663 47.6778C82.1456 47.9222 82.5549 48.0459 83.0944 48.0459C83.6338 48.0459 84.1003 47.9285 84.516 47.6969C84.9317 47.4652 85.2363 47.1447 85.4299 46.7386C85.579 46.4276 85.652 45.9643 85.652 45.355V44.8473Z" fill="#000117"></path><path d="M89.0596 48.944V40.7793H90.3067V42.0168C90.624 41.4393 90.9191 41.0553 91.1856 40.8713C91.4554 40.6872 91.7505 40.5952 92.0741 40.5952C92.5406 40.5952 93.0134 40.7444 93.4957 41.0426L93.0197 42.3278C92.6802 42.1279 92.3438 42.0263 92.0043 42.0263C91.7029 42.0263 91.43 42.1184 91.1888 42.2992C90.9476 42.4801 90.7763 42.734 90.6747 43.0576C90.5224 43.5495 90.4431 44.0889 90.4431 44.6728V48.9471H89.0596V48.944Z" fill="#000117"></path><path d="M98.2854 47.7069L98.4853 48.9285C98.095 49.011 97.746 49.0523 97.4382 49.0523C96.9368 49.0523 96.5465 48.973 96.2704 48.8143C95.9943 48.6557 95.7976 48.4462 95.6865 48.1892C95.5723 47.929 95.5184 47.3864 95.5184 46.555V41.8586H94.5029V40.7829H95.5184V38.7616L96.8955 37.9302V40.7829H98.2886V41.8586H96.8955V46.6343C96.8955 47.0278 96.9209 47.2817 96.9685 47.3959C97.0161 47.5101 97.0954 47.599 97.2065 47.6656C97.3176 47.7322 97.4731 47.7671 97.6793 47.7671C97.8316 47.7608 98.0347 47.7449 98.2854 47.7069Z" fill="#000117"></path><path d="M99.6387 48.944V40.7793H100.883V41.9407C101.482 41.0426 102.349 40.5952 103.481 40.5952C103.973 40.5952 104.427 40.6841 104.84 40.8618C105.252 41.0395 105.56 41.2711 105.766 41.5567C105.972 41.8423 106.115 42.185 106.198 42.5785C106.248 42.8355 106.274 43.2829 106.274 43.9239V48.944H104.89V43.9779C104.89 43.413 104.836 42.9942 104.729 42.7118C104.621 42.4325 104.43 42.2104 104.154 42.0422C103.881 41.8772 103.558 41.7915 103.19 41.7915C102.599 41.7915 102.092 41.9787 101.663 42.3532C101.235 42.7276 101.022 43.4384 101.022 44.4824V48.9408H99.6387V48.944Z" fill="#000117"></path><path d="M113.985 46.3165L115.416 46.4942C115.191 47.3288 114.772 47.9793 114.163 48.4394C113.553 48.8995 112.773 49.1312 111.824 49.1312C110.631 49.1312 109.682 48.7631 108.984 48.0269C108.286 47.2907 107.934 46.2594 107.934 44.933C107.934 43.6066 108.286 42.4928 108.993 41.7344C109.701 40.976 110.618 40.5952 111.745 40.5952C112.871 40.5952 113.728 40.9665 114.42 41.709C115.111 42.4515 115.457 43.4987 115.457 44.8442C115.457 44.9267 115.454 45.0504 115.451 45.2123H109.362C109.412 46.1103 109.666 46.7957 110.123 47.2717C110.58 47.7476 111.148 47.9856 111.83 47.9856C112.338 47.9856 112.77 47.8524 113.131 47.5858C113.49 47.3256 113.775 46.9004 113.985 46.3165ZM109.441 44.0794H114.001C113.941 43.394 113.766 42.8768 113.477 42.5341C113.036 42.001 112.465 41.7344 111.764 41.7344C111.129 41.7344 110.593 41.947 110.161 42.3722C109.726 42.7974 109.485 43.3654 109.441 44.0794Z" fill="#000117"></path><path d="M117.136 48.944V40.7793H118.38V42.0168C118.697 41.4393 118.992 41.0553 119.259 40.8713C119.528 40.6872 119.823 40.5952 120.147 40.5952C120.614 40.5952 121.086 40.7444 121.569 41.0426L121.093 42.3278C120.753 42.1279 120.417 42.0263 120.077 42.0263C119.776 42.0263 119.503 42.1184 119.262 42.2992C119.021 42.4801 118.849 42.734 118.748 43.0576C118.595 43.5495 118.516 44.0889 118.516 44.6728V48.9471H117.136V48.944Z" fill="#000117"></path></svg> 